<svg width="191" height="41" fill="none" xmlns="http://www.w3.org/2000/svg"><path d="m74.33 13.94 1.82.58a4.09 4.09 0 0 1-1.39 2.26 4 4 0 0 1-2.48.74 3.999 3.999 0 0 1-3-1.27 4.82 4.82 0 0 1-1.2-3.46 5.09 5.09 0 0 1 1.2-3.61 4.15 4.15 0 0 1 3.12-1.32 3.83 3.83 0 0 1 2.77 1 3.57 3.57 0 0 1 1 1.71l-1.86.44a2 2 0 0 0-.68-1.14 2 2 0 0 0-1.28-.42 2.11 2.11 0 0 0-1.68.75 3.61 3.61 0 0 0-.64 2.4 3.94 3.94 0 0 0 .63 2.52 2.11 2.11 0 0 0 1.66.74 1.86 1.86 0 0 0 1.28-.47 2.81 2.81 0 0 0 .78-1.5M77.34 13.86c0-.597.148-1.184.43-1.71a3 3 0 0 1 1.25-1.27 3.57 3.57 0 0 1 1.79-.44 3.39 3.39 0 0 1 2.51 1 3.43 3.43 0 0 1 1 2.51 3.51 3.51 0 0 1-1 2.54 3.35 3.35 0 0 1-2.49 1 3.91 3.91 0 0 1-1.77-.42 2.9 2.9 0 0 1-1.29-1.21 4.14 4.14 0 0 1-.43-2m1.82.1a2.24 2.24 0 0 0 .48 1.54 1.57 1.57 0 0 0 2.35 0 2.31 2.31 0 0 0 .47-1.55 2.28 2.28 0 0 0-.47-1.53 1.57 1.57 0 0 0-2.35 0 2.24 2.24 0 0 0-.48 1.54M88.99 13.1h-3.5v1.78h3.5V13.1ZM89.24 10.62h1v-.51a3.38 3.38 0 0 1 .18-1.27 1.42 1.42 0 0 1 .67-.68 2.49 2.49 0 0 1 1.23-.26 5.07 5.07 0 0 1 1.49.22l-.21 1.25a3.46 3.46 0 0 0-.82-.1.74.74 0 0 0-.56.18 1 1 0 0 0-.17.69v.48h1.34v1.4h-1.34v5.34h-1.78v-5.34h-1l-.03-1.4ZM98.79 17.36v-1a2.57 2.57 0 0 1-1 .85 2.68 2.68 0 0 1-1.27.31 2.59 2.59 0 0 1-1.22-.29 1.76 1.76 0 0 1-.78-.84 3.76 3.76 0 0 1-.24-1.49v-4.28h1.78v3.1c-.023.582.01 1.165.1 1.74a1 1 0 0 0 .36.51c.195.13.425.197.66.19a1.38 1.38 0 0 0 .82-.26 1.18 1.18 0 0 0 .49-.62 7 7 0 0 0 .14-1.82v-2.84h1.78v6.74h-1.62ZM108.42 17.36h-1.82v-3.44a4.989 4.989 0 0 0-.12-1.41 1.002 1.002 0 0 0-.37-.5 1 1 0 0 0-.62-.18 1.46 1.46 0 0 0-.83.26 1.294 1.294 0 0 0-.5.67 5.81 5.81 0 0 0-.14 1.55v3h-1.78v-6.69h1.65v1a2.714 2.714 0 0 1 2.23-1.14c.367-.005.732.067 1.07.21.291.11.547.296.74.54.172.22.291.477.35.75.079.395.112.797.1 1.2l.04 4.18ZM116.41 17.36h-1.65v-1c-.256.366-.6.662-1 .86a2.45 2.45 0 0 1-1.13.28 2.578 2.578 0 0 1-2-.93 3.848 3.848 0 0 1-.83-2.62 3.732 3.732 0 0 1 .81-2.6 2.58 2.58 0 0 1 2-.89 2.511 2.511 0 0 1 2 .94V8.06h1.78l.02 9.3Zm-4.76-3.5c-.038.54.066 1.081.3 1.57a1.362 1.362 0 0 0 1.21.69 1.279 1.279 0 0 0 1-.52 2.399 2.399 0 0 0 .44-1.56 2.652 2.652 0 0 0-.42-1.68 1.377 1.377 0 0 0-1.662-.375 1.377 1.377 0 0 0-.478.375 2.285 2.285 0 0 0-.43 1.5M122.07 15.22l1.78.29a2.903 2.903 0 0 1-1.08 1.49 3.18 3.18 0 0 1-1.85.51 3 3 0 0 1-2.6-1.15 3.797 3.797 0 0 1-.67-2.32 3.68 3.68 0 0 1 .88-2.62 2.85 2.85 0 0 1 2.21-.95 3 3 0 0 1 2.38 1c.631.866.926 1.932.83 3h-4.47a1.84 1.84 0 0 0 .43 1.24 1.383 1.383 0 0 0 1 .44c.253.007.5-.074.7-.23.217-.192.367-.447.43-.73m.11-1.81a1.8 1.8 0 0 0-.4-1.18 1.284 1.284 0 0 0-.93-.4 1.244 1.244 0 0 0-1 .43 1.67 1.67 0 0 0-.37 1.15h2.7ZM131.6 17.36h-1.65v-1c-.256.366-.6.662-1 .86a2.45 2.45 0 0 1-1.13.28 2.578 2.578 0 0 1-2-.93 3.848 3.848 0 0 1-.83-2.62 3.732 3.732 0 0 1 .81-2.6 2.58 2.58 0 0 1 2-.89 2.511 2.511 0 0 1 2 .94V8.06h1.8v9.3Zm-4.78-3.5c-.038.54.066 1.081.3 1.57a1.362 1.362 0 0 0 1.21.69 1.279 1.279 0 0 0 1-.52 2.399 2.399 0 0 0 .44-1.56 2.652 2.652 0 0 0-.42-1.68 1.377 1.377 0 0 0-1.662-.375 1.377 1.377 0 0 0-.478.375 2.285 2.285 0 0 0-.43 1.5M136.88 17.36v-9.3h1.78v3.35a2.512 2.512 0 0 1 2-.94 2.58 2.58 0 0 1 2 .89c.584.72.873 1.635.81 2.56a3.89 3.89 0 0 1-.82 2.66 2.566 2.566 0 0 1-2 .93 2.41 2.41 0 0 1-1.14-.29 2.66 2.66 0 0 1-1-.85v1l-1.63-.01Zm1.77-3.5a2.86 2.86 0 0 0 .33 1.55 1.4 1.4 0 0 0 1.23.71 1.257 1.257 0 0 0 1-.5 2.54 2.54 0 0 0 .41-1.59 2.636 2.636 0 0 0-.42-1.67 1.319 1.319 0 0 0-1.07-.51 1.376 1.376 0 0 0-1.07.5 2.31 2.31 0 0 0-.42 1.51M144.05 10.62h1.9l1.65 4.79 1.58-4.79h1.84l-2.42 6.49-.42 1.17c-.119.314-.27.616-.45.9-.129.2-.295.373-.49.51a2.004 2.004 0 0 1-.68.3 3.594 3.594 0 0 1-.91.11 4.885 4.885 0 0 1-1-.11l-.16-1.4c.249.057.504.087.76.09a1.14 1.14 0 0 0 .92-.37c.216-.275.373-.591.46-.93l-2.58-6.76ZM71.45 26.22v1.42h-1.22v2.72a6.868 6.868 0 0 0 0 1 .41.41 0 0 0 .16.23.49.49 0 0 0 .3.09c.248-.02.491-.081.72-.18l.19 1.36a3.54 3.54 0 0 1-1.41.26 2.211 2.211 0 0 1-.87-.16 1.29 1.29 0 0 1-.57-.42 1.69 1.69 0 0 1-.25-.69 8.316 8.316 0 0 1-.06-1.26v-2.95h-.84v-1.42h.82v-1.36l1.79-1v2.38l1.24-.02ZM74.47 23.66v3.42a2.6 2.6 0 0 1 2.06-1 2.51 2.51 0 0 1 1.11.23 1.8 1.8 0 0 1 .75.58c.163.239.279.507.34.79.072.443.102.892.09 1.34v4h-1.78V29.4a5.73 5.73 0 0 0-.1-1.35.89.89 0 0 0-.36-.45 1.18 1.18 0 0 0-.65-.17 1.43 1.43 0 0 0-.79.22 1.25 1.25 0 0 0-.51.65c-.125.415-.18.847-.16 1.28v3.38h-1.79v-9.3h1.79ZM84.54 30.86l1.77.29a2.9 2.9 0 0 1-1.08 1.49 3.18 3.18 0 0 1-1.85.51 3 3 0 0 1-2.6-1.14 3.85 3.85 0 0 1-.67-2.33 3.68 3.68 0 0 1 .88-2.62 2.85 2.85 0 0 1 2.21-.95 3 3 0 0 1 2.38 1 4.43 4.43 0 0 1 .83 3h-4.47c-.014.45.139.888.43 1.23a1.382 1.382 0 0 0 1 .44c.253.007.5-.074.7-.23a1.4 1.4 0 0 0 .44-.73m.1-1.81a1.75 1.75 0 0 0-.4-1.17 1.25 1.25 0 0 0-.93-.41 1.24 1.24 0 0 0-1 .43 1.63 1.63 0 0 0-.38 1.15h2.71ZM91.49 32.96v-9.3h6.9v1.57h-5.02v2.07h4.67v1.56h-4.67v2.53h5.2v1.57h-7.08ZM104.6 32.96v-1c-.252.367-.597.66-1 .85a2.67 2.67 0 0 1-1.26.31 2.56 2.56 0 0 1-1.22-.29 1.762 1.762 0 0 1-.78-.84 3.735 3.735 0 0 1-.25-1.49v-4.28h1.79v3.1a8.175 8.175 0 0 0 .1 1.74.932.932 0 0 0 .36.51c.195.13.426.197.66.19.294 0 .58-.091.82-.26.227-.147.399-.365.49-.62.121-.599.164-1.21.13-1.82v-2.84h1.79v6.74h-1.63ZM109.79 32.96h-1.78v-6.74h1.66v1c.19-.348.448-.654.76-.9.232-.141.499-.214.77-.21a2.32 2.32 0 0 1 1.18.33l-.56 1.56a1.6 1.6 0 0 0-.83-.29 1 1 0 0 0-.64.2 1.465 1.465 0 0 0-.41.75 10.563 10.563 0 0 0-.15 2.26v2.04ZM112.73 29.5c.002-.6.154-1.192.44-1.72a2.927 2.927 0 0 1 1.24-1.27 3.598 3.598 0 0 1 1.79-.44 3.377 3.377 0 0 1 2.51 1 3.45 3.45 0 0 1 1 2.51 3.48 3.48 0 0 1-1 2.54 3.338 3.338 0 0 1-2.48 1 3.91 3.91 0 0 1-1.77-.42 2.802 2.802 0 0 1-1.28-1.22 4.116 4.116 0 0 1-.44-2m1.83.09a2.237 2.237 0 0 0 .48 1.54 1.553 1.553 0 0 0 1.17.528 1.562 1.562 0 0 0 1.17-.528 2.25 2.25 0 0 0 .47-1.55 2.18 2.18 0 0 0-.47-1.52 1.544 1.544 0 0 0-1.814-.398 1.544 1.544 0 0 0-.526.398 2.19 2.19 0 0 0-.48 1.53ZM121.03 26.22h1.67v1a2.487 2.487 0 0 1 2.1-1.14 2.54 2.54 0 0 1 2 .92 3.7 3.7 0 0 1 .82 2.56 3.814 3.814 0 0 1-.83 2.63 2.546 2.546 0 0 1-2 .93 2.278 2.278 0 0 1-1-.22 3.385 3.385 0 0 1-.95-.76v3.4h-1.79l-.02-9.32Zm1.77 3.26a2.63 2.63 0 0 0 .45 1.68 1.396 1.396 0 0 0 1.1.54 1.289 1.289 0 0 0 1-.5c.318-.48.463-1.056.41-1.63a2.474 2.474 0 0 0-.42-1.58 1.306 1.306 0 0 0-1-.51 1.394 1.394 0 0 0-1.09.5 2.261 2.261 0 0 0-.43 1.5M132.93 30.86l1.78.29a2.896 2.896 0 0 1-1.11 1.45 3.231 3.231 0 0 1-1.86.51 2.997 2.997 0 0 1-2.6-1.14 3.911 3.911 0 0 1-.66-2.33 3.72 3.72 0 0 1 .87-2.62 2.874 2.874 0 0 1 2.22-.95 3.002 3.002 0 0 1 2.37 1c.635.865.93 1.932.83 3h-4.47c-.01.448.143.885.43 1.23a1.383 1.383 0 0 0 1 .44c.256.007.507-.074.71-.23a1.39 1.39 0 0 0 .43-.73m.1-1.81a1.65 1.65 0 0 0-.37-1.11 1.22 1.22 0 0 0-.93-.41 1.25 1.25 0 0 0-1 .43 1.633 1.633 0 0 0-.37 1.15l2.67-.06ZM137.6 28.28l-1.62-.29c.131-.58.464-1.094.94-1.45a3.372 3.372 0 0 1 2-.47 4.247 4.247 0 0 1 1.78.28c.342.148.629.4.82.72.198.505.28 1.049.24 1.59v2.09c-.009.438.018.876.08 1.31.072.313.183.615.33.9h-1.77c-.05-.12-.1-.29-.17-.53l-.06-.2c-.291.278-.63.501-1 .66a2.78 2.78 0 0 1-1.11.22 2.27 2.27 0 0 1-1.64-.56 1.873 1.873 0 0 1-.6-1.43 1.943 1.943 0 0 1 .27-1 1.79 1.79 0 0 1 .76-.68c.454-.198.931-.34 1.42-.42a9.742 9.742 0 0 0 1.74-.44v-.17a.932.932 0 0 0-.26-.74 1.569 1.569 0 0 0-1-.22 1.33 1.33 0 0 0-.74.19c-.209.17-.359.4-.43.66m2.39 1.44c-.358.112-.722.206-1.09.28a3.174 3.174 0 0 0-1 .31.74.74 0 0 0-.35.63.844.844 0 0 0 .28.64.992.992 0 0 0 .79.26 1.56 1.56 0 0 0 .92-.32c.205-.143.357-.35.43-.59.056-.286.08-.578.07-.87l-.05-.34ZM149.6 32.96h-1.79v-3.44a5.177 5.177 0 0 0-.11-1.41 1 1 0 0 0-1-.68 1.41 1.41 0 0 0-.83.26 1.25 1.25 0 0 0-.51.67 5.935 5.935 0 0 0-.13 1.55v3.05h-1.79v-6.74h1.66v1a2.703 2.703 0 0 1 2.22-1.14c.371-.004.738.068 1.08.21.29.112.545.299.74.54.168.223.287.478.35.75.074.396.107.798.1 1.2l.01 4.18ZM155.04 23.66h1.88v5a9.912 9.912 0 0 0 .07 1.55c.071.366.274.694.57.92.365.247.801.366 1.24.34a1.94 1.94 0 0 0 1.21-.32c.257-.2.432-.489.49-.81.064-.524.091-1.052.08-1.58v-5.1h1.88v4.88c.024.793-.026 1.586-.15 2.37a2.67 2.67 0 0 1-.57 1.17c-.296.338-.67.599-1.09.76a4.73 4.73 0 0 1-1.79.28 5.05 5.05 0 0 1-2-.31 2.846 2.846 0 0 1-1.09-.8 2.598 2.598 0 0 1-.53-1 11.524 11.524 0 0 1-.18-2.36l-.02-4.99ZM170.6 32.96h-1.78v-3.44a4.989 4.989 0 0 0-.12-1.41 1 1 0 0 0-1-.68 1.41 1.41 0 0 0-.83.26 1.312 1.312 0 0 0-.51.67 5.935 5.935 0 0 0-.13 1.55v3.05h-1.79v-6.74h1.66v1a2.703 2.703 0 0 1 2.22-1.14c.371-.006.738.066 1.08.21.29.112.545.299.74.54.172.22.291.477.35.75.079.395.112.798.1 1.2l.01 4.18ZM172.37 23.66h1.78v1.65h-1.78v-1.65Zm0 2.56h1.78v6.74h-1.78v-6.74ZM175.6 29.5a3.52 3.52 0 0 1 .44-1.72 2.927 2.927 0 0 1 1.24-1.27 3.57 3.57 0 0 1 1.79-.44 3.377 3.377 0 0 1 2.51 1 3.432 3.432 0 0 1 1 2.51 3.463 3.463 0 0 1-2.14 3.3 3.353 3.353 0 0 1-1.35.24 3.91 3.91 0 0 1-1.77-.42 2.782 2.782 0 0 1-1.27-1.22 4 4 0 0 1-.44-2m1.83.09c-.04.554.128 1.103.47 1.54a1.563 1.563 0 0 0 1.175.529 1.566 1.566 0 0 0 1.175-.529c.339-.443.506-.993.47-1.55a2.229 2.229 0 0 0-.47-1.52 1.544 1.544 0 0 0-1.175-.54 1.547 1.547 0 0 0-1.175.54 2.19 2.19 0 0 0-.47 1.53M190.05 32.96h-1.78v-3.44a5.608 5.608 0 0 0-.11-1.41 1.07 1.07 0 0 0-.38-.5 1 1 0 0 0-.62-.18 1.46 1.46 0 0 0-.83.26 1.294 1.294 0 0 0-.5.67 5.81 5.81 0 0 0-.14 1.55v3.05h-1.78v-6.74h1.69v1a2.68 2.68 0 0 1 2.22-1.14c.371-.004.738.068 1.08.21.277.13.517.325.7.57a2 2 0 0 1 .34.75c.079.395.112.797.1 1.2l.01 4.15Z" fill="#034EA2"/><path d="M60.27 0H0v40.93h60.27V0Z" fill="#fff"/><path d="M58.59 1.47H1.68v37.94h56.91V1.47Z" fill="#034EA2"/><path d="m28.93 9.74 1.2-.88 1.2.88-.46-1.42 1.22-.88h-1.5l-.46-1.43-.46 1.43h-1.5l1.21.88-.45 1.42ZM22.71 11.41l1.2-.88 1.2.88-.45-1.42 1.22-.88h-1.51l-.46-1.43-.46 1.43h-1.5l1.22.88-.46 1.42ZM19.37 12.23l-.46 1.44H17.4l1.22.88-.45 1.41 1.2-.87 1.2.87-.46-1.41 1.22-.88h-1.5l-.46-1.44ZM17.7 21.29l1.2.88-.46-1.42 1.22-.87h-1.5l-.46-1.44-.46 1.44h-1.5l1.22.87-.46 1.42 1.2-.88ZM19.83 26.1l-.46-1.43-.46 1.44-1.51-.01 1.22.88-.45 1.42 1.2-.88 1.2.88-.46-1.42 1.22-.88h-1.5ZM24.38 30.66l-.46-1.43-.46 1.43h-1.5l1.22.88-.46 1.41 1.2-.87 1.2.87-.45-1.41 1.22-.88h-1.51ZM30.59 32.31l-.46-1.44-.46 1.44h-1.5l1.22.88-.46 1.41 1.2-.87 1.2.87-.46-1.41 1.22-.88h-1.5ZM36.8 30.66l-.46-1.43-.46 1.43h-1.51l1.22.88-.45 1.41 1.2-.87 1.2.87-.46-1.41 1.22-.88h-1.5ZM41.36 26.1l-.47-1.43-.46 1.44-1.5-.01 1.22.88-.46 1.42 1.2-.88 1.2.88-.45-1.42 1.22-.88h-1.5ZM44.51 19.86H43l-.46-1.44-.46 1.44h-1.5l1.22.88-.46 1.41 1.2-.87 1.2.87-.45-1.41 1.22-.88ZM39.69 15.95l1.2-.88 1.2.88-.45-1.42 1.22-.88h-1.5l-.47-1.43-.46 1.43h-1.5l1.22.88-.46 1.42ZM36.36 7.68l-.46 1.44-1.51-.01 1.22.88-.46 1.42 1.21-.88 1.2.88-.46-1.42 1.22-.88h-1.51l-.45-1.43Z" fill="#FFF200"/></svg>