<svg width="167" height="45" fill="none" xmlns="http://www.w3.org/2000/svg"><path d="M116 39H0v2h116v-2Z" fill="#000"/><path d="M122.636 7.65a3.45 3.45 0 0 0-1.209-.488c-.436-.4-.869-.353-1.38-.6.17-.19.486-.2.43-.516-.044-.249-.293-.256-.468-.337-.815-.378-1.679-.405-2.542-.38-.464.013-.84.001-.798-.674-.108-.48-.497-.572-.835-.73-.177-.082-.461-.11-.411-.365.05-.256.334-.13.516-.152.156-.017.315.011.471-.007.184-.02.444.08.513-.189.08-.313-.191-.383-.381-.476-.955-.47-1.963-.578-2.994-.519-.939.056-1.88.101-2.818.167-.361.026-.545-.198-.677-.506-.123-.283.046-.44.242-.573.359.062.697-.08 1.028-.18.277-.086.491-.31.159-.639a.606.606 0 0 0-.024-.086c-.905-.5-1.824-.492-2.789-.193-.67.207-1.347.47-2.069.362a16.74 16.74 0 0 0-3.688-.137c-.64.047-1.282.146-1.819.601-.041.496-.313.546-.7.498-1.97-.247-3.95-.042-5.925-.084-.654-.014-1.28.22-1.709.843-.127.186-.296.393-.204.644.102.276.355.21.566.21.117 0 .235-.014.351-.005.098.007.21.05.211.17.002.06-.082.157-.142.176-.517.16-1.012.483-1.583.316-1.199-.35-2.373-.18-3.52.25-.454.168-.935.371-1.055 1-.039.096-.13.21-.112.287.183.73-.286.932-.74 1.141a3.388 3.388 0 0 1-.667.24c-.746.163-1.497.294-2.24.461-.34.076-.679.252-.616.712.058.42.338.663.742.696.487.04.975.078 1.46.134.371.043.664.238.851.607.436.855.76.935 1.486.363.19-.15.376-.308.565-.462 1.252-.912 2.656-1.096 4.098-.943.724.077 1.487.01 2.162.424a9.859 9.859 0 0 0 1.455 1.515c.664.558 1.243 1.19 1.605 2.041.161.377.42.678.752.892.99.642 1.565 1.608 1.817 2.827.363.005.725.011 1.089.014.162-.236.009-.454-.038-.675-.14-.643-.496-1.234-.386-1.94a1.349 1.349 0 0 1 .063-.422c.265-.463.529-.925.905-1.299.483-.482.935-.99 1.116-1.716.073-.286.221-.362.488-.25.416.171.686-.032.798-.488.057-.227.134-.399.373-.427.526-.059 1.051-.126 1.575-.188.282-.035.378.1.243.375-.329.68-.397 1.447-.619 2.16-.522 1.676-1.301 3.097-3.001 3.606-.534.16-.812.645-.872 1.261.452-.002.903-.006 1.355-.007.173-.366.529-.404.82-.548.386-.19.809-.306 1.086-.7.661-.575 1.286-1.183 1.774-1.95.293-.459.609-.899 1.039-1.219.277-.386.679-.473 1.082-.547.909-.169 1.826-.176 2.742-.193 1.346-.028 2.512-.705 3.727-1.209v-.002a7.08 7.08 0 0 0 1.53-.919c.491-.668 1.1-.715 1.78-.425.4.173.806.33 1.204.501.315.136.658.228.974.207l.047.002c.79-.016 1.138-.195.918-.748.025-.026.053-.048.08-.073.416.044 1.741.138.743-.518ZM87.529 5.08c0-.004 0-.008 0 0Zm0 0c0-.006 0-.002 0 0Zm.005 0c.005.006.008.013 0 0Zm0 0c.013.024.008.011 0 0Zm5 1.293c-.34.031-.746.177-1.007-.117-.209-.234.082-.469.228-.645.422-.507.531-.47.94.254v.004c-.003.191.163.476-.162.504Zm1.146-.353c-.203.05-.4.148-.493-.17h.004-.002c-.266-.506-.126-.665.39-.65 1.031.027 2.065.043 3.091-.147.501-.092 1.008-.167 1.344-.66.126-.527.336-.529.592-.105.128.21.232.437.345.656.011.22-.043.372-.28.38-.608.013-1.132.246-1.568.72-.175.192-.346.14-.5-.045-.238-.089-.477-.176-.715-.264l.008.005c-.016-.007-.03-.01-.047-.016-.738-.052-1.454.12-2.169.296Zm6.102 6.906c-.12.247-.283.104-.444.003-.869-.542-1.442-1.356-1.8-2.369l-.819-.765c-.453-.242-.897-.494-1.218-.958.533-.185.53-.18.845.264.107.151.25.271.375.407 1.084.436 2.151.401 3.234-.047.685-.284.773-.174.779.69.12 1.108-.527 1.895-.952 2.775Zm1.969-2.439c-.084.12-.115.33-.271.342.164-.322.057-.643-.005-.967-.036-.19-.086-.403.175-.443.211-.03.392.02.414.31.006.085.011.17.042.25a.134.134 0 0 0 .026.031c-.273.016-.265.306-.381.477Zm1.125-5.76c-.086.465-.142.94-.182 1.415-.038.434-.262.51-.567.377-.784-.343-1.476-.883-2.268-1.226-.364-.156-.513-.768-.59-1.227-.063-.378.304-.199.516-.286.45.094.935.178 1.41.3.441.114.878.241 1.335.19.327-.037.412.103.346.456Zm3.167 1.255-.704.137c-.45.151-.895.32-1.35.447-.372.102-.502.024-.469-.322a.722.722 0 0 1 .045-.27c.019-.745-.018-1.495.232-2.209-.005-.127.05-.216.163-.212.115.003.233.03.344.066.332.106.832-.153.982.182.168.381-.428.517-.532.884v.001c.138.612.678.562 1.056.78.244-.006.533-.05.57.321.017.217-.183.21-.337.195Zm8.634 3.707c0-.002 0-.002 0 0Zm0 0c.001 0 .001 0 0 0Zm-4.649.33c-.935-.143-1.898-.158-2.709.537-.219.188-.502.37-.499.73-.291.25-.469.595-.637.903.012-.609.354-1.193.277-1.855a.283.283 0 0 0-.03-.042c.222-.287.293-.65.406-.989.157-.473.365-.602.837-.406 1.491.616 2.975.378 4.427-.21.537-.217.614-.62.238-1.11-.189-.248-.42-.455-.633-.679a.169.169 0 0 0-.17-.059c-.179-.139-.456-.174-.459-.48-.003-.245.244-.216.387-.297.63-.23 1.267-.219 1.911-.082l.031.04-.001.01c.003.167.05.325.088.485.099.324.061.626-.065.943-.255.636-.116.874.518.907.601.032 1.206.006 1.955-.003-1.933 1.092-3.748 1.98-5.872 1.657Z" fill="#4A8522"/><path d="M110 17.928c0 .258-.094.388-.282.388-.293 0-2.143-.059-5.548-.179-.094 3.028-.141 5.453-.141 7.28 0 1.14.045 2.852.133 5.135.087 2.282.132 3.993.132 5.136 0 .21-.151.312-.455.312-.188 0-.476-.014-.863-.045-.386-.03-.679-.044-.878-.044-.188 0-.476.014-.861.044-.386.031-.673.045-.86.045-.261 0-.39-.124-.39-.37 0-1.132.048-2.832.148-5.099.098-2.266.15-3.97.15-5.113 0-1.766-.058-4.192-.173-7.279-2.696.158-4.67.238-5.924.238-.126 0-.188-.049-.188-.149 0-.178.047-.436.141-.773l.203-.773c.021-.347.094-.828.22-1.445.051-.129.141-.192.267-.192l.188.014c3.698.21 6.137.312 7.319.312 1.044 0 2.751-.075 5.124-.223 1.619-.099 2.292-.148 2.021-.148.271 0 .423.09.455.268-.021-.11-.032.371-.032 1.445 0 .13.015.33.047.602.032.268.047.475.047.613Z" fill="#843E1E"/><path d="M116 43H0v2h116v-2Z" fill="#DA2127"/><path d="M28.712 36.998c-3.157.062-5.416-1.19-7.154-3.405-4.048-5.16-3.185-13.459 1.833-17.716 1.156-.982 2.494-1.637 4.025-1.868.276-.04.665.062.876.24 2.032 1.701 2.238 3.413.687 5.527-.759 1.033-1.502 2.081-2.33 3.06-2.109 2.493-2.273 5.154-.879 7.985.681 1.383 1.38 2.76 2.05 4.145.306.628.562 1.277.892 2.032Z" fill="#843E1E"/><path d="M116 41H0v2h116v-2Z" fill="#FFDB00"/><path d="M16.491 35.52c0 .077-.08.117-.243.117-.193 0-.487-.014-.882-.044a12.74 12.74 0 0 0-.88-.044c-.215 0-.532.014-.952.044-.42.03-.738.044-.95.044-.234 0-.41-.122-.533-.365-.326-.664-1.249-2.716-2.77-6.158-.15-.35-.523-.566-1.11-.644-.133-.01-.593-.014-1.386-.014-1.4 0-2.232.02-2.496.058-.214.03-.32.277-.32.746 0 .682.034 1.705.1 3.065.066 1.36.1 2.377.1 3.05 0 .204-.102.306-.305.306-.204 0-.51-.022-.922-.066a9.513 9.513 0 0 0-.935-.066c-.172 0-.436.014-.79.044-.356.03-.619.044-.79.044-.254 0-.38-.112-.38-.337 0-1.083.053-2.708.16-4.878.105-2.169.16-3.796.16-4.877 0-3.08-.118-6.367-.352-9.859L0 15.453c-.01-.196.204-.293.64-.293.873 0 2.178-.022 3.92-.066a169.4 169.4 0 0 1 3.901-.066c2.254 0 4.06.516 5.418 1.551 1.502 1.141 2.253 2.76 2.253 4.856 0 1.444-.203 2.58-.608 3.408-.425.877-1.218 1.711-2.373 2.501-.193.127-.289.25-.289.364 0 .138.606 1.434 1.82 3.891 1.203 2.457 1.81 3.763 1.81 3.92Zm-4.17-13.269c0-1.765-.527-2.946-1.583-3.54-.783-.439-2.187-.658-4.216-.658-1.644 0-2.482.128-2.51.381-.072.526-.107 1.936-.107 4.227v2.794c.031.02.096.04.197.058.183.02.482.044.9.074.963.05 2.003.074 3.12.074 2.798 0 4.2-1.137 4.2-3.41Zm45.307 7.065c0 1.697-.533 3.154-1.597 4.373-1.127 1.278-2.556 1.916-4.293 1.916-.649 0-1.627-.014-2.93-.044-1.303-.03-2.28-.044-2.929-.044-.477 0-1.195.02-2.154.058-.958.04-1.676.058-2.154.058-.253 0-.379-.112-.379-.337 0-1.073.054-2.684.16-4.834.105-2.149.16-3.76.16-4.833 0-1.13-.055-2.83-.16-5.097-.106-2.268-.16-3.967-.16-5.097 0-.216.126-.32.38-.32.902 0 2.261.003 4.08.013 1.814.01 3.18.014 4.092.014 2.131 0 3.83.38 5.098 1.14 1.542.927 2.313 2.365 2.313 4.315 0 .672-.203 1.372-.608 2.1-.406.726-.898 1.275-1.477 1.645-.294.186-.442.308-.442.365 0 .058.148.166.442.321.772.41 1.39 1.011 1.857 1.807.47.798.701 1.623.701 2.481Zm-4.276-8.395c0-1.376-.639-2.302-1.917-2.78-.772-.283-2.035-.425-3.788-.425-1.706 0-2.557.122-2.557.365 0 .321-.014.804-.045 1.448-.03.644-.046 1.13-.046 1.463 0 .226.004.571.015 1.04.01.468.014.82.014 1.052 0 .283 1.147.425 3.44.425 3.256 0 4.884-.862 4.884-2.588Zm.411 8.25c0-1.19-.554-1.995-1.66-2.414-.699-.273-1.79-.409-3.272-.409-2.556 0-3.834.132-3.834.395v2.4c0 .35.01.887.031 1.608.021.722.031 1.263.031 1.624 0 .097.324.171.973.22.65.05 1.615.073 2.893.073 1.603 0 2.755-.2 3.454-.6.923-.529 1.384-1.494 1.384-2.898Zm23.91-13.736c0 1.13-.047 2.825-.145 5.083-.097 2.257-.145 3.952-.145 5.083 0 .371.004.923.014 1.661.011.736.015 1.284.015 1.645 0 2.038-.197 3.452-.594 4.241-.607 1.21-1.79 2.028-3.545 2.457-1.075.263-2.594.395-4.55.395-3.553 0-5.88-.566-6.986-1.697-.853-.877-1.278-2.632-1.278-5.266 0-.32.004-.866.014-1.632.01-.765.015-1.368.015-1.806 0-1.15-.052-3.273-.152-6.364 0-.799-.046-1.994-.137-3.583a3.27 3.27 0 0 1-.014-.233c0-.206.13-.307.396-.307.415 0 .98.004 1.69.014.82.01 1.38.014 1.673.014.233 0 .351.087.351.263 0 1.481-.033 3.711-.1 6.684a330.013 330.013 0 0 0-.099 6.684c0 1.677.39 2.814 1.172 3.408.67.527 1.903.79 3.7.79 1.632 0 2.794-.215 3.485-.644.874-.537 1.31-1.542 1.31-3.013 0-1.542-.026-3.855-.077-6.942-.052-3.087-.077-5.4-.077-6.94 0-.157.147-.255.442-.294.213-.03.516-.03.913 0 .466.04.691.057.67.057.182 0 .458-.014.83-.043.37-.03.647-.044.83-.044.253.008.38.115.38.33ZM93 16.591c-.203.321-.48.81-.836 1.462-.112.303-.309.732-.594 1.288a.282.282 0 0 1-.242.132c.01 0-.48-.174-1.469-.519-.99-.347-1.803-.518-2.442-.518-1.868 0-2.8.79-2.8 2.37 0 .876.652 1.642 1.961 2.296 2.202 1.103 3.42 1.735 3.652 1.902 1.31 1.005 1.963 2.36 1.963 4.066 0 2.186-.899 3.905-2.693 5.163-1.614 1.131-3.598 1.697-5.95 1.697-1.096 0-1.686-.117-1.766-.35a21.542 21.542 0 0 0-.274-1.624 90.761 90.761 0 0 0-.38-1.316.757.757 0 0 1-.046-.249c0-.136.077-.206.23-.206.241 0 .615.024 1.117.074.502.05.88.074 1.133.074 3.145 0 4.718-.975 4.718-2.926 0-.955-.635-1.784-1.903-2.486-2.313-1.268-3.496-1.927-3.546-1.974-1.278-.995-1.917-2.33-1.917-4.009 0-1.814.62-3.266 1.857-4.359C83.981 15.526 85.543 15 87.46 15c.811 0 1.745.128 2.801.381 1.148.283 2.01.624 2.588 1.023.05.036.1.1.151.187Z" fill="#000"/><path d="M29.671 14c3.125.193 5.314 1.614 6.956 3.802 3.705 4.931 2.985 12.571-1.553 16.87-1.188 1.126-2.596 1.941-4.26 2.313-.273.061-.809-.073-.906-.26-1.045-1.989-2.033-4.004-3.017-6.018-.228-.466-.395-.958-.562-1.448-.617-1.787-.377-3.462.812-5.002.866-1.123 1.741-2.238 2.605-3.365 2.273-2.964 2.276-3.922-.075-6.892Z" fill="#843E1E"/><path d="M130.586 24.39h1.458c1.021 0 1.852.213 2.493.638.647.425 1.121.965 1.422 1.62.306.654.459 1.325.459 2.013 0 .83-.197 1.58-.59 2.25a4.351 4.351 0 0 1-1.626 1.583c-.69.386-1.477.58-2.362.58a4.59 4.59 0 0 1-1.603-.294c-.525-.2-.992-.58-1.4-1.139l-.117.057V28.89c0 .468.117.9.35 1.297.238.396.574.714 1.006.953.438.238.958.358 1.56.358.632 0 1.176-.132 1.633-.394a2.805 2.805 0 0 0 1.057-1.04c.248-.429.372-.897.372-1.403 0-.478-.112-.93-.335-1.354a2.708 2.708 0 0 0-.934-1.046c-.398-.273-.869-.409-1.414-.409h-1.429v-1.461Zm.846-6.39c.695 0 1.31.11 1.844.33.54.22.994.515 1.364.888.374.368.656.78.845 1.24.195.458.292.928.292 1.41 0 .603-.156 1.202-.467 1.799-.311.592-.787 1.087-1.429 1.483-.641.392-1.458.588-2.449.588h-.846v-1.462h.817c.564 0 1.045-.115 1.443-.344.404-.23.71-.528.919-.895.214-.368.321-.758.321-1.168 0-.66-.258-1.206-.773-1.64-.51-.435-1.137-.653-1.881-.653-.496 0-.95.1-1.363.301-.408.2-.736.48-.984.838a2.155 2.155 0 0 0-.365 1.24V37H127V21.955c0-.755.19-1.43.569-2.028a4.025 4.025 0 0 1 1.574-1.411c.671-.344 1.434-.516 2.289-.516ZM143.863 33.103c-1.079 0-2.01-.235-2.792-.703a4.741 4.741 0 0 1-1.801-1.977c-.418-.85-.627-1.839-.627-2.966 0-1.127.209-2.12.627-2.98.423-.865 1.011-1.538 1.764-2.02.758-.488 1.643-.732 2.654-.732.583 0 1.159.096 1.727.287a4.288 4.288 0 0 1 1.553.931c.467.425.838.99 1.115 1.691.277.702.416 1.567.416 2.594v.716h-8.631v-1.461h6.881c0-.621-.126-1.175-.379-1.663a2.817 2.817 0 0 0-1.064-1.153c-.457-.282-.996-.423-1.618-.423-.685 0-1.278.168-1.779.502a3.31 3.31 0 0 0-1.144 1.29 3.726 3.726 0 0 0-.401 1.705v.974c0 .831.145 1.535.437 2.113.297.574.707 1.01 1.232 1.312.525.296 1.135.444 1.83.444.452 0 .86-.062 1.224-.187.37-.128.688-.32.955-.573.268-.258.474-.578.62-.96l1.662.459a3.61 3.61 0 0 1-.882 1.461c-.413.416-.923.74-1.531.975-.607.229-1.29.344-2.048.344ZM155.985 21.869v1.433h-5.802v-1.433h5.802Zm-4.111-2.637h1.72v10.489c0 .478.071.836.212 1.075.146.234.33.391.554.473.228.076.469.114.721.114.19 0 .346-.01.467-.029l.292-.057.349 1.519a3.502 3.502 0 0 1-.488.129 3.653 3.653 0 0 1-.794.072c-.486 0-.963-.103-1.429-.309a2.825 2.825 0 0 1-1.152-.938c-.301-.42-.452-.95-.452-1.59V19.232ZM161.868 33.131a4.623 4.623 0 0 1-1.932-.394 3.3 3.3 0 0 1-1.377-1.153c-.341-.507-.511-1.118-.511-1.834 0-.63.127-1.142.379-1.534a2.66 2.66 0 0 1 1.014-.93 5.371 5.371 0 0 1 1.399-.502 17.292 17.292 0 0 1 1.553-.273c.68-.086 1.232-.15 1.655-.193.427-.048.738-.127.933-.237.199-.11.299-.3.299-.573v-.057c0-.707-.197-1.256-.591-1.648-.389-.392-.979-.587-1.771-.587-.821 0-1.465.176-1.932.53-.466.353-.795.73-.984 1.132l-1.633-.573c.292-.669.68-1.19 1.166-1.562a4.405 4.405 0 0 1 1.604-.788 6.766 6.766 0 0 1 1.72-.23c.36 0 .773.043 1.24.13.471.08.926.25 1.363.508.442.258.809.647 1.101 1.168.291.52.437 1.218.437 2.092v7.25h-1.72v-1.49h-.088c-.116.239-.311.495-.583.767-.272.272-.634.504-1.086.695-.452.19-1.004.286-1.655.286Zm.263-1.519c.68 0 1.253-.131 1.72-.394.471-.262.826-.602 1.064-1.017a2.56 2.56 0 0 0 .365-1.311v-1.548c-.073.086-.234.165-.481.237a8.215 8.215 0 0 1-.846.179c-.316.048-.625.09-.926.129-.296.033-.537.062-.722.086-.447.057-.865.15-1.253.28a2.165 2.165 0 0 0-.933.565c-.234.249-.35.588-.35 1.018 0 .587.221 1.031.663 1.332.447.296 1.013.444 1.699.444Z" fill="#000"/></svg>