<svg width="159" height="45" fill="none" xmlns="http://www.w3.org/2000/svg"><path d="M116 39H0v2h116v-2Z" fill="#000"/><path d="M122.636 7.65a3.45 3.45 0 0 0-1.209-.488c-.436-.4-.869-.353-1.38-.6.17-.19.486-.2.43-.516-.044-.249-.293-.256-.468-.337-.815-.378-1.679-.405-2.542-.38-.464.013-.84.001-.798-.674-.108-.48-.497-.572-.835-.73-.177-.082-.461-.11-.411-.365.05-.256.334-.13.516-.152.156-.017.315.011.471-.007.184-.02.444.08.513-.189.08-.313-.191-.383-.381-.476-.955-.47-1.963-.578-2.994-.519-.939.056-1.88.101-2.818.167-.361.026-.545-.198-.677-.506-.123-.283.046-.44.242-.573.359.062.697-.08 1.028-.18.277-.086.491-.31.159-.639a.606.606 0 0 0-.024-.086c-.905-.5-1.824-.492-2.789-.193-.67.207-1.347.47-2.069.362a16.74 16.74 0 0 0-3.688-.137c-.64.047-1.282.146-1.819.601-.041.496-.313.546-.7.498-1.97-.247-3.95-.042-5.925-.084-.654-.014-1.28.22-1.709.843-.127.186-.296.393-.204.644.102.276.355.21.566.21.117 0 .235-.014.351-.005.098.007.21.05.211.17.002.06-.082.157-.142.176-.517.16-1.012.483-1.583.316-1.199-.35-2.373-.18-3.52.25-.454.168-.935.371-1.055 1-.039.096-.13.21-.112.287.183.73-.286.932-.74 1.141a3.388 3.388 0 0 1-.667.24c-.746.163-1.497.294-2.24.461-.34.076-.679.252-.616.712.058.42.338.663.742.696.487.04.975.078 1.46.134.371.043.664.238.851.607.436.855.76.935 1.486.363.19-.15.376-.308.565-.462 1.252-.912 2.656-1.096 4.098-.943.724.077 1.487.01 2.162.424a9.859 9.859 0 0 0 1.455 1.515c.664.558 1.243 1.19 1.605 2.041.161.377.42.678.752.892.99.642 1.565 1.608 1.817 2.827.363.005.725.011 1.089.014.162-.236.009-.454-.038-.675-.14-.643-.496-1.234-.386-1.94a1.349 1.349 0 0 1 .063-.422c.265-.463.529-.925.905-1.299.483-.482.935-.99 1.116-1.716.073-.286.221-.362.488-.25.416.171.686-.032.798-.488.057-.227.134-.399.373-.427.526-.059 1.051-.126 1.575-.188.282-.035.378.1.243.375-.329.68-.397 1.447-.619 2.16-.522 1.676-1.301 3.097-3.001 3.606-.534.16-.812.645-.872 1.261.452-.002.903-.006 1.355-.007.173-.366.529-.404.82-.548.386-.19.809-.306 1.086-.7.661-.575 1.286-1.183 1.774-1.95.293-.459.609-.899 1.039-1.219.277-.386.679-.473 1.082-.547.909-.169 1.826-.176 2.742-.193 1.346-.028 2.512-.705 3.727-1.209v-.002a7.08 7.08 0 0 0 1.53-.919c.491-.668 1.1-.715 1.78-.425.4.173.806.33 1.204.501.315.136.658.228.974.207l.047.002c.79-.016 1.138-.195.918-.748.025-.026.053-.048.08-.073.416.044 1.741.138.743-.518ZM87.529 5.08c0-.004 0-.008 0 0Zm0 0c0-.006 0-.002 0 0Zm.005 0c.005.006.008.013 0 0Zm0 0c.013.024.008.011 0 0Zm5 1.293c-.34.031-.746.177-1.007-.117-.209-.234.082-.469.228-.645.422-.507.531-.47.94.254v.004c-.003.191.163.476-.162.504Zm1.146-.353c-.203.05-.4.148-.493-.17h.004-.002c-.266-.506-.126-.665.39-.65 1.031.027 2.065.043 3.091-.147.501-.092 1.008-.167 1.344-.66.126-.527.336-.529.592-.105.128.21.232.437.345.656.011.22-.043.372-.28.38-.608.013-1.132.246-1.568.72-.175.192-.346.14-.5-.045-.238-.089-.477-.176-.715-.264l.008.005c-.016-.007-.03-.01-.047-.016-.738-.052-1.454.12-2.169.296Zm6.102 6.906c-.12.247-.283.104-.444.003-.869-.542-1.442-1.356-1.8-2.369l-.819-.765c-.453-.242-.897-.494-1.218-.958.533-.185.53-.18.845.264.107.151.25.271.375.407 1.084.436 2.151.401 3.234-.047.685-.284.773-.174.779.69.12 1.108-.527 1.895-.952 2.775Zm1.969-2.439c-.084.12-.115.33-.271.342.164-.322.057-.643-.005-.967-.036-.19-.086-.403.175-.443.211-.03.392.02.414.31.006.085.011.17.042.25a.134.134 0 0 0 .026.031c-.273.016-.265.306-.381.477Zm1.125-5.76c-.086.465-.142.94-.182 1.415-.038.434-.262.51-.567.377-.784-.343-1.476-.883-2.268-1.226-.364-.156-.513-.768-.59-1.227-.063-.378.304-.199.516-.286.45.094.935.178 1.41.3.441.114.878.241 1.335.19.327-.037.412.103.346.456Zm3.167 1.255-.704.137c-.45.151-.895.32-1.35.447-.372.102-.502.024-.469-.322a.722.722 0 0 1 .045-.27c.019-.745-.018-1.495.232-2.209-.005-.127.05-.216.163-.212.115.003.233.03.344.066.332.106.832-.153.982.182.168.381-.428.517-.532.884v.001c.138.612.678.562 1.056.78.244-.006.533-.05.57.321.017.217-.183.21-.337.195Zm8.634 3.707c0-.002 0-.002 0 0Zm0 0c.001 0 .001 0 0 0Zm-4.649.33c-.935-.143-1.898-.158-2.709.537-.219.188-.502.37-.499.73-.291.25-.469.595-.637.903.012-.609.354-1.193.277-1.855a.283.283 0 0 0-.03-.042c.222-.287.293-.65.406-.989.157-.473.365-.602.837-.406 1.491.616 2.975.378 4.427-.21.537-.217.614-.62.238-1.11-.189-.248-.42-.455-.633-.679a.169.169 0 0 0-.17-.059c-.179-.139-.456-.174-.459-.48-.003-.245.244-.216.387-.297.63-.23 1.267-.219 1.911-.082l.031.04-.001.01c.003.167.05.325.088.485.099.324.061.626-.065.943-.255.636-.116.874.518.907.601.032 1.206.006 1.955-.003-1.933 1.092-3.748 1.98-5.872 1.657Z" fill="#4A8522"/><path d="M110 17.928c0 .258-.094.388-.282.388-.293 0-2.143-.059-5.548-.179-.094 3.028-.141 5.453-.141 7.28 0 1.14.045 2.852.133 5.135.087 2.282.132 3.993.132 5.136 0 .21-.151.312-.455.312-.188 0-.476-.014-.863-.045-.386-.03-.679-.044-.878-.044-.188 0-.476.014-.861.044-.386.031-.673.045-.86.045-.261 0-.39-.124-.39-.37 0-1.132.048-2.832.148-5.099.098-2.266.15-3.97.15-5.113 0-1.766-.058-4.192-.173-7.279-2.696.158-4.67.238-5.924.238-.126 0-.188-.049-.188-.149 0-.178.047-.436.141-.773l.203-.773c.021-.347.094-.828.22-1.445.051-.129.141-.192.267-.192l.188.014c3.698.21 6.137.312 7.319.312 1.044 0 2.751-.075 5.124-.223 1.619-.099 2.292-.148 2.021-.148.271 0 .423.09.455.268-.021-.11-.032.371-.032 1.445 0 .13.015.33.047.602.032.268.047.475.047.613Z" fill="#843E1E"/><path d="M116 43H0v2h116v-2Z" fill="#DA2127"/><path d="M28.712 36.998c-3.157.062-5.416-1.19-7.154-3.405-4.048-5.16-3.185-13.459 1.833-17.716 1.156-.982 2.494-1.637 4.025-1.868.276-.04.665.062.876.24 2.032 1.701 2.238 3.413.687 5.527-.759 1.033-1.502 2.081-2.33 3.06-2.109 2.493-2.273 5.154-.879 7.985.681 1.383 1.38 2.76 2.05 4.145.306.628.562 1.277.892 2.032Z" fill="#843E1E"/><path d="M116 41H0v2h116v-2Z" fill="#FFDB00"/><path d="M16.491 35.52c0 .077-.08.117-.243.117-.193 0-.487-.014-.882-.044a12.74 12.74 0 0 0-.88-.044c-.215 0-.532.014-.952.044-.42.03-.738.044-.95.044-.234 0-.41-.122-.533-.365-.326-.664-1.249-2.716-2.77-6.158-.15-.35-.523-.566-1.11-.644-.133-.01-.593-.014-1.386-.014-1.4 0-2.232.02-2.496.058-.214.03-.32.277-.32.746 0 .682.034 1.705.1 3.065.066 1.36.1 2.377.1 3.05 0 .204-.102.306-.305.306-.204 0-.51-.022-.922-.066a9.513 9.513 0 0 0-.935-.066c-.172 0-.436.014-.79.044-.356.03-.619.044-.79.044-.254 0-.38-.112-.38-.337 0-1.083.053-2.708.16-4.878.105-2.169.16-3.796.16-4.877 0-3.08-.118-6.367-.352-9.859L0 15.453c-.01-.196.204-.293.64-.293.873 0 2.178-.022 3.92-.066a169.4 169.4 0 0 1 3.901-.066c2.254 0 4.06.516 5.418 1.551 1.502 1.141 2.253 2.76 2.253 4.856 0 1.444-.203 2.58-.608 3.408-.425.877-1.218 1.711-2.373 2.501-.193.127-.289.25-.289.364 0 .138.606 1.434 1.82 3.891 1.203 2.457 1.81 3.763 1.81 3.92Zm-4.17-13.269c0-1.765-.527-2.946-1.583-3.54-.783-.439-2.187-.658-4.216-.658-1.644 0-2.482.128-2.51.381-.072.526-.107 1.936-.107 4.227v2.794c.031.02.096.04.197.058.183.02.482.044.9.074.963.05 2.003.074 3.12.074 2.798 0 4.2-1.137 4.2-3.41Zm45.307 7.065c0 1.697-.533 3.154-1.597 4.373-1.127 1.278-2.556 1.916-4.293 1.916-.649 0-1.627-.014-2.93-.044-1.303-.03-2.28-.044-2.929-.044-.477 0-1.195.02-2.154.058-.958.04-1.676.058-2.154.058-.253 0-.379-.112-.379-.337 0-1.073.054-2.684.16-4.834.105-2.149.16-3.76.16-4.833 0-1.13-.055-2.83-.16-5.097-.106-2.268-.16-3.967-.16-5.097 0-.216.126-.32.38-.32.902 0 2.261.003 4.08.013 1.814.01 3.18.014 4.092.014 2.131 0 3.83.38 5.098 1.14 1.542.927 2.313 2.365 2.313 4.315 0 .672-.203 1.372-.608 2.1-.406.726-.898 1.275-1.477 1.645-.294.186-.442.308-.442.365 0 .058.148.166.442.321.772.41 1.39 1.011 1.857 1.807.47.798.701 1.623.701 2.481Zm-4.276-8.395c0-1.376-.639-2.302-1.917-2.78-.772-.283-2.035-.425-3.788-.425-1.706 0-2.557.122-2.557.365 0 .321-.014.804-.045 1.448-.03.644-.046 1.13-.046 1.463 0 .226.004.571.015 1.04.01.468.014.82.014 1.052 0 .283 1.147.425 3.44.425 3.256 0 4.884-.862 4.884-2.588Zm.411 8.25c0-1.19-.554-1.995-1.66-2.414-.699-.273-1.79-.409-3.272-.409-2.556 0-3.834.132-3.834.395v2.4c0 .35.01.887.031 1.608.021.722.031 1.263.031 1.624 0 .097.324.171.973.22.65.05 1.615.073 2.893.073 1.603 0 2.755-.2 3.454-.6.923-.529 1.384-1.494 1.384-2.898Zm23.91-13.736c0 1.13-.047 2.825-.145 5.083-.097 2.257-.145 3.952-.145 5.083 0 .371.004.923.014 1.661.011.736.015 1.284.015 1.645 0 2.038-.197 3.452-.594 4.241-.607 1.21-1.79 2.028-3.545 2.457-1.075.263-2.594.395-4.55.395-3.553 0-5.88-.566-6.986-1.697-.853-.877-1.278-2.632-1.278-5.266 0-.32.004-.866.014-1.632.01-.765.015-1.368.015-1.806 0-1.15-.052-3.273-.152-6.364 0-.799-.046-1.994-.137-3.583a3.27 3.27 0 0 1-.014-.233c0-.206.13-.307.396-.307.415 0 .98.004 1.69.014.82.01 1.38.014 1.673.014.233 0 .351.087.351.263 0 1.481-.033 3.711-.1 6.684a330.013 330.013 0 0 0-.099 6.684c0 1.677.39 2.814 1.172 3.408.67.527 1.903.79 3.7.79 1.632 0 2.794-.215 3.485-.644.874-.537 1.31-1.542 1.31-3.013 0-1.542-.026-3.855-.077-6.942-.052-3.087-.077-5.4-.077-6.94 0-.157.147-.255.442-.294.213-.03.516-.03.913 0 .466.04.691.057.67.057.182 0 .458-.014.83-.043.37-.03.647-.044.83-.044.253.008.38.115.38.33ZM93 16.591c-.203.321-.48.81-.836 1.462-.112.303-.309.732-.594 1.288a.282.282 0 0 1-.242.132c.01 0-.48-.174-1.469-.519-.99-.347-1.803-.518-2.442-.518-1.868 0-2.8.79-2.8 2.37 0 .876.652 1.642 1.961 2.296 2.202 1.103 3.42 1.735 3.652 1.902 1.31 1.005 1.963 2.36 1.963 4.066 0 2.186-.899 3.905-2.693 5.163-1.614 1.131-3.598 1.697-5.95 1.697-1.096 0-1.686-.117-1.766-.35a21.542 21.542 0 0 0-.274-1.624 90.761 90.761 0 0 0-.38-1.316.757.757 0 0 1-.046-.249c0-.136.077-.206.23-.206.241 0 .615.024 1.117.074.502.05.88.074 1.133.074 3.145 0 4.718-.975 4.718-2.926 0-.955-.635-1.784-1.903-2.486-2.313-1.268-3.496-1.927-3.546-1.974-1.278-.995-1.917-2.33-1.917-4.009 0-1.814.62-3.266 1.857-4.359C83.981 15.526 85.543 15 87.46 15c.811 0 1.745.128 2.801.381 1.148.283 2.01.624 2.588 1.023.05.036.1.1.151.187Z" fill="#000"/><path d="M29.671 14c3.125.193 5.314 1.614 6.956 3.802 3.705 4.931 2.985 12.571-1.553 16.87-1.188 1.126-2.596 1.941-4.26 2.313-.273.061-.809-.073-.906-.26-1.045-1.989-2.033-4.004-3.017-6.018-.228-.466-.395-.958-.562-1.448-.617-1.787-.377-3.462.812-5.002.866-1.123 1.741-2.238 2.605-3.365 2.273-2.964 2.276-3.922-.075-6.892Z" fill="#843E1E"/><rect x="122" y="18" width="37" height="20" rx="4" fill="#000"/><path d="M129.421 26.373h.984c.689 0 1.25.145 1.683.436.436.29.756.66.96 1.108.206.448.31.907.31 1.377 0 .569-.133 1.082-.399 1.54a2.952 2.952 0 0 1-1.097 1.083c-.466.265-.997.397-1.594.397-.365 0-.725-.067-1.083-.201-.354-.137-.669-.397-.945-.78l-.078.04V29.45c0 .32.078.616.236.887.16.272.387.489.679.652.295.164.646.245 1.053.245.426 0 .794-.09 1.102-.27a1.905 1.905 0 0 0 .964-1.67c0-.328-.075-.636-.226-.927a1.852 1.852 0 0 0-.63-.716 1.634 1.634 0 0 0-.954-.28h-.965v-1Zm.571-4.373c.469 0 .884.075 1.245.226.364.15.671.353.92.608.253.251.443.534.571.848.131.313.197.635.197.965 0 .412-.105.822-.315 1.23-.21.406-.532.744-.965 1.015-.433.268-.984.402-1.653.402h-.571v-1h.551c.381 0 .706-.078.975-.235.272-.157.479-.361.62-.613.144-.251.216-.518.216-.799 0-.45-.174-.825-.522-1.122-.344-.298-.767-.446-1.269-.446-.335 0-.641.068-.92.206a1.707 1.707 0 0 0-.664.573 1.49 1.49 0 0 0-.246.848V35H127V24.706c0-.516.128-.979.384-1.387.259-.409.614-.73 1.063-.966.453-.235.968-.353 1.545-.353ZM138.383 32.334c-.729 0-1.357-.16-1.885-.48a3.224 3.224 0 0 1-1.215-1.354c-.282-.581-.423-1.258-.423-2.03 0-.77.141-1.45.423-2.038a3.324 3.324 0 0 1 1.191-1.383c.511-.333 1.108-.5 1.791-.5.393 0 .782.066 1.166.196.384.131.733.343 1.048.637.315.291.566.677.753 1.157.187.48.28 1.072.28 1.775v.49h-5.826v-1h4.645c0-.425-.085-.804-.256-1.137a1.918 1.918 0 0 0-.718-.79c-.308-.192-.673-.289-1.092-.289-.463 0-.863.115-1.201.344-.335.225-.592.52-.773.882a2.59 2.59 0 0 0-.27 1.167v.666c0 .569.098 1.05.295 1.446.2.392.477.692.832.897.354.203.766.304 1.235.304.305 0 .58-.042.826-.127a1.77 1.77 0 0 0 .645-.392c.18-.177.32-.396.418-.657l1.122.314a2.484 2.484 0 0 1-.595 1 2.908 2.908 0 0 1-1.034.666c-.41.157-.871.236-1.382.236ZM146.565 24.647v.98h-3.916v-.98h3.916Zm-2.775-1.804h1.162v7.177c0 .327.047.572.142.735a.74.74 0 0 0 .374.324c.154.052.317.078.487.078.128 0 .233-.006.315-.02l.197-.039.236 1.04a2.33 2.33 0 0 1-.329.088c-.141.032-.32.049-.537.049-.328 0-.649-.07-.964-.211a1.916 1.916 0 0 1-.778-.642c-.203-.288-.305-.65-.305-1.088v-7.49ZM150.536 32.353c-.479 0-.913-.09-1.304-.27a2.24 2.24 0 0 1-.93-.789c-.229-.346-.344-.764-.344-1.255 0-.431.085-.78.256-1.049.17-.27.398-.483.684-.637.285-.154.6-.268.945-.343.347-.078.697-.14 1.048-.186.459-.06.831-.103 1.117-.133.288-.032.498-.086.629-.161.135-.076.202-.206.202-.393v-.039c0-.483-.133-.86-.398-1.127-.263-.268-.661-.402-1.196-.402-.555 0-.989.12-1.304.363-.315.241-.536.5-.664.774l-1.103-.392c.197-.458.46-.814.788-1.069a2.953 2.953 0 0 1 1.082-.539 4.513 4.513 0 0 1 1.161-.157c.243 0 .522.03.837.088.318.056.625.172.92.348.299.177.546.443.743.8.197.356.295.833.295 1.43v4.962h-1.161v-1.02h-.059a2.04 2.04 0 0 1-.394.525 2.265 2.265 0 0 1-.733.475c-.305.13-.677.196-1.117.196Zm.177-1.04c.46 0 .847-.089 1.162-.269a1.841 1.841 0 0 0 .964-1.593v-1.059c-.049.06-.157.113-.325.162a5.505 5.505 0 0 1-.57.123 27.662 27.662 0 0 1-1.112.147c-.302.039-.584.103-.847.19a1.463 1.463 0 0 0-.63.388c-.157.17-.236.402-.236.696 0 .402.149.706.448.912.302.203.684.304 1.146.304Z" fill="#fff"/></svg>